<?xml version="1.0" encoding="UTF-8"?><svg id="Layer_2" xmlns="http://www.w3.org/2000/svg" viewBox="0 0 234.6141 113.2834"><g id="Components"><g id="bca225b3-8711-4df6-85c4-3e62469f4ff9_13"><g><path d="M53.9969,35.7868h-4.7632c-2.8987-5.1996-9.0383-10.548-17.1085-10.548-18.2935,0-27.2229,16.36-26.8283,32.3672,.871,35.0481,40.0174,38.3843,47.7337,15.3121l.87,.3947c-3.4023,11.0243-13.7199,16.0334-23.4795,15.8711C15.8838,88.9388,.0555,77.1923,.0001,56.6397-.0388,40.3468,10.6725,24.013,32.1233,24.013c10.372,0,18.2118,5.675,21.8736,11.7738Z" style="fill:#e6dfd5;"/><path d="M66.3869,29.6645v58.0747h19.0011c6.3029,0,9.4184-3.7924,9.9628-5.9327,0,0-.2187,4.5435-.2187,7.1145H60.6303V24.218h5.7586v5.4465h-.0019Z" style="fill:#e6dfd5;"/><path d="M100.4465,88.919V24.218h5.7712V88.919h-5.7712Z" style="fill:#e6dfd5;"/><path d="M122.3113,24.218l33.3324,55.1575V30.8859c-.0408-2.0569-2.1638-6.2939-4.0837-6.668h5.2395V88.919h-1.1577L117.6969,26.1211v56.117c.0544,2.0698,2.1638,6.3068,4.0837,6.6828h-5.2259V24.218h5.7566Z" style="fill:#e6dfd5;"/><path d="M167.3174,88.919V24.218h5.7712V88.919h-5.7712Z" style="fill:#e6dfd5;"/><path d="M234.6141,35.7868h-4.7632c-2.8987-5.1996-9.0383-10.548-17.1085-10.548-18.2935,0-27.2229,16.36-26.8283,32.3672,.871,35.0481,40.0174,38.3843,47.7337,15.3121l.87,.3947c-3.4023,11.0243-13.7199,16.0334-23.4795,15.8711-14.5374-.245-30.3657-11.9915-30.4211-32.5441-.0389-16.2929,10.6724-32.6267,32.1232-32.6267,10.372,0,18.2118,5.675,21.8736,11.7738Z" style="fill:#e6dfd5;"/></g><g><path d="M3.1966,113.2592c-.4631,0-.8741-.0501-1.2332-.1495-.3594-.0994-.6707-.2397-.934-.4193-.2635-.1796-.479-.3792-.6467-.598-.1677-.2197-.2915-.4535-.371-.7007l.9697-.3358c.1199,.3516,.3612,.6573,.7245,.9162,.3631,.2598,.8081,.3892,1.3351,.3892,.6465,0,1.1532-.1278,1.5205-.3834,.3671-.2547,.5508-.5947,.5508-1.0173,0-.3909-.1637-.7083-.4909-.9521-.3274-.243-.7584-.4326-1.2931-.5688l-.9221-.2397c-.3752-.0952-.7204-.2372-1.0357-.4251-.3155-.1871-.5669-.4268-.7544-.7183-.1875-.2907-.2813-.6406-.2813-1.0474,0-.7584,.2453-1.3514,.7362-1.7782,.4911-.4268,1.1994-.6406,2.1254-.6406,.5508,0,1.0256,.0902,1.4249,.2698,.399,.1796,.7243,.4067,.9759,.6824,.2514,.2748,.4289,.573,.5327,.892l-.9578,.3349c-.1518-.3992-.4072-.7124-.7663-.9396-.3594-.228-.7945-.3416-1.3052-.3416-.5347,0-.9599,.1303-1.2752,.3892-.3153,.2598-.4729,.613-.4729,1.0599,0,.3834,.1236,.6765,.3713,.8803,.2472,.203,.5707,.3525,.9699,.4485l.9219,.228c.8141,.1913,1.4387,.5086,1.8738,.9513,.4351,.4435,.6527,.9204,.6527,1.4307,0,.4393-.1119,.8402-.3353,1.2035-.2236,.3633-.5529,.6506-.9878,.8619-.4351,.2113-.9757,.3174-1.6224,.3174Z" style="fill:#e6dfd5;"/><path d="M13.2407,113.1156v-8.3814h.9699v8.3814h-.9699Zm.7064-2.8731l-.4191-.9221,4.4064-4.5862h1.2691l-5.2564,5.5082Zm4.1788,2.8731l-3.4363-4.2621,.6586-.6473,4.0111,4.9094h-1.2334Z" style="fill:#e6dfd5;"/><path d="M25.9671,113.1156v-8.3814h1.0177v8.3814h-1.0177Z" style="fill:#e6dfd5;"/><path d="M34.4169,113.1156v-8.3814h1.0298l4.9929,6.7293v-6.7293h1.0177v8.3814h-1.0177l-5.005-6.7652v6.7652h-1.0177Z" style="fill:#e6dfd5;"/><path d="M48.9856,113.2834c-.1837,0-.3414-.066-.4729-.1979-.1318-.1311-.1975-.2848-.1975-.461,0-.1829,.0658-.3408,.1975-.4727,.1315-.1311,.2892-.1971,.4729-.1971,.1835,0,.3391,.066,.4669,.1971,.1276,.132,.1917,.2898,.1917,.4727,0,.1762-.0641,.3299-.1917,.461-.1278,.132-.2833,.1979-.4669,.1979Z" style="fill:#e6dfd5;"/><path d="M56.4484,113.1156v-8.3814h1.0177v8.3814h-1.0177Zm.8981-3.8553v-.9221h5.0768v.9221h-5.0768Zm4.8612,3.8553v-8.3814h1.0058v8.3814h-1.0058Z" style="fill:#e6dfd5;"/><path d="M70.8853,113.1156v-8.3814h4.957v.9221h-3.9393v2.7061h3.592v.9095h-3.592v2.9216h3.9633v.9221h-4.981Z" style="fill:#e6dfd5;"/><path d="M81.7504,113.1156l3.4125-8.3814h1.0298l-3.3647,8.3814h-1.0776Zm1.6166-2.3829v-.9095h4.6576v.9095h-4.6576Zm5.1965,2.3829l-3.3647-8.3814h1.0177l3.4125,8.3814h-1.0655Z" style="fill:#e6dfd5;"/><path d="M95.4826,113.1156v-8.3814h1.0177v7.4593h3.9514v.9221h-4.9691Z" style="fill:#e6dfd5;"/><path d="M107.3311,113.1156v-7.4593h-2.67v-.9221h6.346v.9221h-2.6702v7.4593h-1.0058Z" style="fill:#e6dfd5;"/><path d="M117.5141,113.1156v-8.3814h1.0177v8.3814h-1.0177Zm.8981-3.8553v-.9221h5.0768v.9221h-5.0768Zm4.8612,3.8553v-8.3814h1.0058v8.3814h-1.0058Z" style="fill:#e6dfd5;"/><path d="M132.0825,113.2834c-.1837,0-.3414-.066-.4729-.1979-.1318-.1311-.1975-.2848-.1975-.461,0-.1829,.0658-.3408,.1975-.4727,.1315-.1311,.2892-.1971,.4729-.1971,.1835,0,.3391,.066,.4669,.1971,.1276,.132,.1917,.2898,.1917,.4727,0,.1762-.0641,.3299-.1917,.461-.1278,.132-.2833,.1979-.4669,.1979Z" style="fill:#e6dfd5;"/><path d="M141.1022,113.1156l-2.5624-8.3814h1.0177l2.5384,8.3814h-.9937Zm.1077,0l2.4666-8.3814h.9699l-2.4666,8.3814h-.9699Zm4.9092,0l-2.4067-8.3814h.9699l2.4426,8.3814h-1.0058Zm.0837,0l2.5864-8.3814h1.0177l-2.5984,8.3814h-1.0058Z" style="fill:#e6dfd5;"/><path d="M155.6927,113.1156v-8.3814h4.957v.9221h-3.9393v2.7061h3.592v.9095h-3.592v2.9216h3.9633v.9221h-4.981Z" style="fill:#e6dfd5;"/><path d="M167.5639,113.1156v-8.3814h1.0177v7.4593h3.9514v.9221h-4.9691Z" style="fill:#e6dfd5;"/><path d="M178.5795,113.1156v-8.3814h1.0177v7.4593h3.9514v.9221h-4.9691Z" style="fill:#e6dfd5;"/><path d="M189.5953,113.1156v-8.3814h1.0298l4.9929,6.7293v-6.7293h1.0177v8.3814h-1.0177l-5.005-6.7652v6.7652h-1.0177Z" style="fill:#e6dfd5;"/><path d="M204.032,113.1156v-8.3814h4.957v.9221h-3.9393v2.7061h3.592v.9095h-3.592v2.9216h3.9633v.9221h-4.981Z" style="fill:#e6dfd5;"/><path d="M218.5852,113.2592c-.4631,0-.8741-.0501-1.2332-.1495-.3594-.0994-.6707-.2397-.934-.4193-.2635-.1796-.479-.3792-.6467-.598-.1677-.2197-.2915-.4535-.371-.7007l.9697-.3358c.1199,.3516,.3612,.6573,.7245,.9162,.3631,.2598,.8081,.3892,1.3351,.3892,.6465,0,1.1532-.1278,1.5205-.3834,.3671-.2547,.5508-.5947,.5508-1.0173,0-.3909-.1637-.7083-.4909-.9521-.3274-.243-.7584-.4326-1.2931-.5688l-.9221-.2397c-.3752-.0952-.7204-.2372-1.0357-.4251-.3155-.1871-.5669-.4268-.7544-.7183-.1875-.2907-.2813-.6406-.2813-1.0474,0-.7584,.2453-1.3514,.7362-1.7782,.4911-.4268,1.1994-.6406,2.1254-.6406,.5508,0,1.0256,.0902,1.4249,.2698,.399,.1796,.7243,.4067,.9759,.6824,.2514,.2748,.4289,.573,.5327,.892l-.9578,.3349c-.1518-.3992-.4072-.7124-.7663-.9396-.3594-.228-.7945-.3416-1.3052-.3416-.5347,0-.9599,.1303-1.2752,.3892-.3153,.2598-.4729,.613-.4729,1.0599,0,.3834,.1236,.6765,.3713,.8803,.2472,.203,.5707,.3525,.9699,.4485l.9219,.228c.8141,.1913,1.4387,.5086,1.8738,.9513,.4351,.4435,.6527,.9204,.6527,1.4307,0,.4393-.1119,.8402-.3353,1.2035-.2236,.3633-.5529,.6506-.9878,.8619-.4351,.2113-.9757,.3174-1.6224,.3174Z" style="fill:#e6dfd5;"/><path d="M231.3114,113.2592c-.4631,0-.8741-.0501-1.2332-.1495-.3594-.0994-.6707-.2397-.934-.4193-.2635-.1796-.479-.3792-.6467-.598-.1677-.2197-.2915-.4535-.371-.7007l.9697-.3358c.1199,.3516,.3612,.6573,.7245,.9162,.3631,.2598,.8081,.3892,1.3351,.3892,.6465,0,1.1532-.1278,1.5205-.3834,.3671-.2547,.5508-.5947,.5508-1.0173,0-.3909-.1637-.7083-.4909-.9521-.3274-.243-.7584-.4326-1.2931-.5688l-.9221-.2397c-.3752-.0952-.7204-.2372-1.0357-.4251-.3155-.1871-.5669-.4268-.7544-.7183-.1875-.2907-.2813-.6406-.2813-1.0474,0-.7584,.2453-1.3514,.7362-1.7782,.4911-.4268,1.1994-.6406,2.1254-.6406,.5508,0,1.0256,.0902,1.4249,.2698,.399,.1796,.7243,.4067,.9759,.6824,.2514,.2748,.4289,.573,.5327,.892l-.9578,.3349c-.1518-.3992-.4072-.7124-.7663-.9396-.3594-.228-.7945-.3416-1.3052-.3416-.5347,0-.9599,.1303-1.2752,.3892-.3153,.2598-.4729,.613-.4729,1.0599,0,.3834,.1236,.6765,.3713,.8803,.2472,.203,.5707,.3525,.9699,.4485l.9219,.228c.8141,.1913,1.4387,.5086,1.8738,.9513,.4351,.4435,.6527,.9204,.6527,1.4307,0,.4393-.1119,.8402-.3353,1.2035-.2236,.3633-.5529,.6506-.9878,.8619-.4351,.2113-.9757,.3174-1.6224,.3174Z" style="fill:#e6dfd5;"/></g><g><path d="M103.5338,8.3814V.9221h-2.67V0h6.346V.9221h-2.6702v7.4593h-1.0058Z" style="fill:#e6dfd5;"/><path d="M113.7166,8.3814V0h1.0177V8.3814h-1.0177Zm.8981-3.8553v-.9221h5.0768v.9221h-5.0768Zm4.8612,3.8553V0h1.0058V8.3814h-1.0058Z" style="fill:#e6dfd5;"/><path d="M128.1534,8.3814V0h4.957V.9221h-3.9393V3.6282h3.592v.9095h-3.592v2.9216h3.9633v.9221h-4.981Z" style="fill:#e6dfd5;"/></g></g></g></svg>