<?xml version="1.0" encoding="UTF-8"?><svg id="Layer_2" xmlns="http://www.w3.org/2000/svg" viewBox="0 0 116.0063 141.3299"><g id="Components"><g id="_594d30cd-da8e-4116-b52e-345106ab92d2_5"><path d="M62.8033,4.1376c-4.0243,.6621-7.6057,1.8589-10.6667,3.9316,5.0707-1.5075,10.6061-2.3288,16.6114-2.3304,17.4354-.0046,30.703,11.5474,36.9678,22.7762l10.2905-.0027c-6.1256-10.1972-17.6679-19.8367-32.9636-23.6716-6.0593-1.5242-13.4388-1.8218-20.2394-.703Z" style="fill:#fff;"/><path d="M72.0803,63.514C31.1402,55.1975,33.514,28.8582,39.15,17.5863c3.8348-7.6695,7.2386-13.8118,20.2992-15.98,5.8256-1.1245,9.0644-1.2264,13.2408-.7723,.0898,.0097,.1777,.021,.267,.0312-2.8841-.5671-6.0002-.8652-9.3589-.8652-9.3901,0-14.117,2.1516-23.2566,6.012-4.3169,1.8021-8.2876,4.0055-11.9119,6.5459C9.4251,25.879-.0545,48.4642,.0002,71.0143c.1191,44.4021,34.3144,69.7786,65.7218,70.3081,1.9785,.033,3.9663-.0436,5.9514-.2125,10.9717-.5594,20.1632-3.9513,27.2204-9.0339-4.9989,3.3467-11.5885,5.8848-20.2435,6.2723-19.7119,.8826-28.8389-2.9542-32.6183-5.4385-18.6307-8.5665-33.8046-28.2188-34.5886-59.8076-.4933-19.9998,5.7506-40.2539,18.7484-53.7793-8.9071,20.598,1.2992,51.2759,39.7722,56.4202,47.2037,6.3118,40.5696,45.5469,16.4194,58.5997,22.8776-6.8137,27.0738-22.0996,27.0738-22.0996,0,0-.0367,.1425-.1068,.383,6.2361-19.5228-5.4273-41.8312-41.2702-49.1123Z" style="fill:#fff;"/></g></g></svg>