<?xml version="1.0" encoding="UTF-8"?><svg id="Layer_2" xmlns="http://www.w3.org/2000/svg" viewBox="0 0 196.8319 175.5314"><g id="Components"><g id="_42c1f39b-175f-4a06-b01b-c69e8ca63f99_4"><g><path d="M18.4016,108.2779v22.3025h3.9573l-.0759-22.1512c0-10.6963-15.6001-9.702-18.269-1.0111v-20.9203c-1.2395,.7205-2.6409,1.0026-4.0139,1.1067v42.976H4.0139v-20.0302c0-10.043,14.3877-11.766,14.3877-2.2723Z"/><path d="M41.783,131.101c5.49,0,9.4663-2.2908,11.946-5.6125h-3.2283c-1.8923,2.8768-4.7893,4.8081-8.7178,4.8081-9.1057,0-12.7224-10.4409-10.8574-18.7522h23.7783c-1.1453-5.4246-4.9604-10.7919-12.9209-10.7919-19.9731,0-19.9731,30.3485,0,30.3485Zm0-29.5811c5.6045,0,8.311,4.526,9.2485,9.23H31.1243c1.4009-5.1221,4.9512-9.23,10.6587-9.23Z"/><path d="M69.9744,100.7155c-3.9854,0-6.3706,2.007-7.6201,4.1465h2.991c.5022-1.4023,1.8738-3.342,4.6292-3.342,4.9221,0,6.3516,4.3447,6.3516,7.203v1.0228c-3.2383,.0286-6.8447,.304-9.9775,1.3149-12.5037,4.0524-10.033,20.0403,2.4333,20.0588,3.8333,.01,6.5691-1.8171,7.5442-5.7554v5.2162c1.2402-.7188,2.6318-1.0043,4.0046-1.1067v-20.7507c0-6.066-5.0366-8.0074-10.3562-8.0074Zm6.3516,20.3712c0,6.7679-3.6064,9.3895-7.1748,9.0687-8.6804-.7776-8.6997-12.9128-2.1108-17.3146,2.4136-1.6089,5.6792-2.5259,9.2856-2.64v10.8859Z"/><path d="M97.8154,122.2673c0,6.3046,3.8525,8.8706,7.9138,8.8706,2.812,0,6.3711-1.77,7.1851-4.8081h-3.0476c-.4072,3.1792-2.5276,4.1835-3.9377,4.2305-1.9695,.0654-4.0986-1.9583-4.0986-8.293v-20.7473h5.4148v-.8044h-5.4148v-10.4408c-1.2407,.7086-2.6409,1.0026-4.0137,1.0966v4.9895h-.0012v4.353h-1.5522v.8062h1.5522v20.7473Z"/><path d="M134.2488,108.2779v22.3025h3.957l-.0759-22.1512c0-10.6963-15.5999-9.702-18.2688-1.0111V59.3972c-1.2388,.7205-2.6042,1.0144-3.9763,1.1084v70.0748h3.9763v-20.0302c0-10.043,14.3877-11.766,14.3877-2.2723Z"/><path d="M41.3071,145.6631c.9094,.6532,1.0693,2.9825,.4727,4.3732l-8.5671,20.21-6.8821-16.2332,3.5398-8.35h-3.1326c.9182,.6532,1.0691,2.9825,.4829,4.3732l-1.2869,3.0297-3.1326-7.4028h-4.0137l5.1394,12.127-5.2734,12.4579-10.4219-24.5833H4.2271c4.136,9.7692,8.2825,19.5383,12.4197,29.3074h.8052l1.5996-3.7871,5.2827-12.4478,6.8821,16.2332h.7949l1.6089-3.7871c3.6064-8.4994,7.2129-17.0106,10.8198-25.5201h-3.1328Z"/><path d="M71.8127,155.936c-1.1455-5.4243-4.9604-10.7917-12.9209-10.7917-19.9731,0-19.9731,30.3485,0,30.3485,5.49,0,9.4663-2.2906,11.946-5.6127h-3.2283c-1.8923,2.877-4.7893,4.8082-8.7178,4.8082-9.1057,0-12.7224-10.4408-10.8574-18.7523h23.7783Zm-12.9209-10.0243c5.6045,0,8.311,4.526,9.2485,9.2301h-19.9072c1.4009-5.1223,4.9512-9.2301,10.6587-9.2301Z"/><path d="M76.1995,174.9721h4.0139v-41.9443c-1.2395,.7187-2.6316,1.0126-4.0139,1.1084v40.8359Z"/><path d="M101.605,151.808v-6.1433c-1.2407,.7205-2.6316,1.0144-4.0139,1.1068v28.1989h4.0139v-20.0303c0-10.0427,14.3879-11.7659,14.3879-2.2722v22.3025h3.957c0-7.3927-.0286-14.767-.0659-22.1497,0-10.696-15.6101-9.7019-18.2791-1.0127Z"/><path d="M152.4915,155.936c-1.1453-5.4243-4.9604-10.7917-12.9209-10.7917-19.9731,0-19.9731,30.3485,0,30.3485,5.49,0,9.4663-2.2906,11.946-5.6127h-3.2283c-1.8923,2.877-4.7893,4.8082-8.7178,4.8082-9.1057,0-12.7222-10.4408-10.8574-18.7523h23.7783Zm-12.9209-10.0243c5.6045,0,8.311,4.526,9.2485,9.2301h-19.9072c1.4009-5.1223,4.9512-9.2301,10.6587-9.2301Z"/><path d="M187.3005,158.5593c-11.5283-1.9111-9.229-12.6459-2.6689-12.6459,2.7451,0,4.4585,1.9397,4.9504,3.3403h2.6599c-1.2402-2.1295-3.626-4.1465-7.6111-4.1465-10.072,0-12.657,14.9769,1.8831,17.3903,11.3213,1.8743,7.4683,12.2194-.0566,12.2194-4.5728,0-8.3018-1.8558-9.05-6.5027,.4919-4.0507-2.4897-8.5011-9.4751-9.6566-11.5288-1.9111-9.2292-12.6459-2.6692-12.6459,2.7451,0,4.458,1.9397,4.9502,3.342h2.6621c-1.2393-2.1295-3.625-4.1465-7.6101-4.1465-10.0725,0-12.6567,14.9769,1.8835,17.3903,11.3208,1.8743,7.4683,12.2194-.0566,12.2194-4.5728,0-8.3018-1.8558-9.0503-6.5027h-3.4365c1.23,5.3959,6.6826,7.3173,12.4854,7.3173,4.1272,0,7.0898-1.5049,8.7656-3.6343,2.3672,2.6216,6.3901,3.6343,10.6023,3.6343,12.8923,0,14.4358-14.7184,.842-16.9722Z"/><path d="M73.3833,72.2917c-11.5283-1.9128-9.2292-12.6477-2.6689-12.6477,2.7449,0,4.4583,1.9397,4.9504,3.342h2.6597c-1.2388-2.1395-3.6245-4.1465-7.6101-4.1465-10.0715,0-12.6565,14.9736,1.8835,17.3785,11.3213,1.8843,7.4683,12.2311-.0569,12.2311-4.5713,0-8.3003-1.8557-9.0491-6.5127h-3.4365c1.2302,5.4043,6.6829,7.3271,12.4856,7.3271,12.8923,0,14.4358-14.72,.8423-16.9719Z"/><path d="M90.8899,77.4977l6.7629-8.491,6.5693,16.8864c.5774,1.4678,1.3628,2.8114,3.6438,2.8114h3.2563c-1.2969-.4821-2.2241-1.3822-3.1616-3.72l-5.6707-14.5117c-.8901-1.9497-2.5745-1.77-4.4207-1.7517l4.6667-5.8208c1.458-1.8187,2.8777-3.1438,4.0137-3.5032h-4.1077c.8425,.6062,.5305,1.8843-.4163,3.1438l-11.136,13.9526v-24.0029h-4.0049v122.4814h4.0049V77.4977Z"/><path d="M130.6873,68.6725c0-10.0428,14.3879-11.7659,14.3879-2.2722v22.3025h3.957c0-7.3928-.0286-14.7671-.0659-22.1497,0-10.6962-15.6101-9.7019-18.2791-1.0127v-6.1433c-1.2407,.7205-2.6316,1.0144-4.0137,1.1067v28.199h4.0137v-20.0303Z"/></g><g><path d="M59.0559,21.624h-3.4029c-1.6647-2.902-4.335-5.0063-8.3563-5.0063-8.1149,0-12.2832,7.4868-12.5237,15.2036-.5231,16.5354,16.6505,21.5736,22.7337,11.0387l.6911,.2721c-1.5291,2.6484-4.8274,6.2104-10.901,6.2104-11.3297,0-16.8486-8.8186-16.5665-17.4255,.2725-8.1669,5.791-16.1475,16.5652-16.1475,5.6856,0,9.4563,2.4822,11.7604,5.8544Z"/><path d="M68.2333,48.7665h-4.4391V1.2243c1.5178-.1142,3.0683-.4282,4.4391-1.2243V48.7665Z"/><path d="M79.9819,15.9107c0,1.2125-.9942,2.2051-2.2151,2.2051s-2.2055-.9942-2.2055-2.2051c0-1.2209,.9841-2.2151,2.2055-2.2151s2.2151,.9942,2.2151,2.2151Zm-.2087,32.8559h-4.0033V20.5677c1.3721-.094,2.7643-.3879,4.0033-1.1084v29.3073Z"/><path d="M90.909,25.6025c2.669-8.6892,18.2791-9.6834,18.2791,1.0127,.0374,7.3827,.0659,14.7569,.0659,22.1497h-3.9571V26.4624c0-9.4937-14.3879-7.7706-14.3879,2.2722v20.0303h-4.0138V20.566c1.3821-.0924,2.7731-.3863,4.0138-1.1067v6.1433Z"/><path d="M120.3543,12.4192c0,1.3418-1.1,2.4402-2.4511,2.4402s-2.4393-1.1-2.4393-2.4402c0-1.3502,1.0887-2.4503,2.4393-2.4503s2.4511,1.1,2.4511,2.4503Zm-.2309,36.3474h-4.429V17.5716c1.5178-.1041,3.0582-.4299,4.429-1.226V48.7665Z"/><path d="M153.4479,21.624h-3.4029c-1.6647-2.902-4.335-5.0063-8.3563-5.0063-8.1149,0-12.2832,7.4868-12.5237,15.2036-.5231,16.5354,16.6505,21.5736,22.7337,11.0387l.6911,.2721c-1.5291,2.6484-4.8274,6.2104-10.901,6.2104-11.3297,0-16.8486-8.8186-16.5665-17.4255,.2725-8.1669,5.791-16.1475,16.5652-16.1475,5.6856,0,9.4563,2.4822,11.7604,5.8544Z"/></g></g></g></svg>