<?xml version="1.0" encoding="UTF-8"?><svg id="Layer_2" xmlns="http://www.w3.org/2000/svg" viewBox="0 0 219.0074 109.0481"><g id="Components"><g id="_81b339e0-40a8-4da7-b622-9d30ade04eb7_13"><path d="M13.3838,46.9815c-4.8995,0-8.8971-1.9882-9.6991-6.9825H0c1.3184,5.7951,7.1633,7.8556,13.3838,7.8556,13.8216,0,15.4755-15.7786,.903-18.1934-12.3585-2.0506-9.8925-13.5584-2.8601-13.5584,2.9424,0,4.7786,2.0805,5.3061,3.5823h2.8514c-1.3285-2.2925-3.8855-4.4454-8.1576-4.4454-10.7967,0-13.5683,16.053,2.0181,18.6299,12.1366,2.0207,8.0065,13.1118-.061,13.1118Z" style="fill:#e6dfd5;"/><path d="M47.6077,44.2424c.6187,1.5716,1.4607,3.0135,3.9067,3.0135h3.4913c-1.3907-.5189-2.3849-1.4818-3.3902-3.9889l-6.0782-15.5541c-.9544-2.0905-2.7605-1.8984-4.7398-1.8785l5.0029-6.2416c1.5627-1.9483,3.0847-3.3702,4.3032-3.7544h-4.4043c.903,.6511,.5687,2.0207-.4453,3.3703l-11.9842,14.9553V0c-1.3297,.7708-2.8215,1.0752-4.2935,1.1875V47.2559h4.2935v-12.0142l7.2955-9.1029,7.0423,18.1036Z" style="fill:#e6dfd5;"/><path d="M60.3752,9.6593c-1.3095,0-2.3635,1.0652-2.3635,2.3749,0,1.2972,1.0541,2.3649,2.3635,2.3649,1.3085,0,2.375-1.0652,2.375-2.3649,0-1.3097-1.0665-2.3749-2.375-2.3749Z" style="fill:#e6dfd5;"/><path d="M58.235,47.2559h4.2919V15.8385c-1.3283,.7708-2.8215,1.0876-4.2919,1.1875v30.23Z" style="fill:#e6dfd5;"/><path d="M72.6602,22.4243v-6.5858c-1.3297,.7708-2.8201,1.0876-4.302,1.1875v30.2275h4.302V25.7821c0-10.7669,15.4243-12.6129,15.4243-2.4348v23.9061h4.2422c0-7.9255-.0313-15.8285-.0711-23.744,0-11.4678-16.734-10.4002-19.5954-1.0852Z" style="fill:#e6dfd5;"/><path d="M119.9562,14.3991c1.3085,0,2.3748-1.0652,2.3748-2.3649,0-1.3097-1.0663-2.3749-2.3748-2.3749-1.3097,0-2.3637,1.0652-2.3637,2.3749,0,1.2972,1.0541,2.3649,2.3637,2.3649Z" style="fill:#e6dfd5;"/><path d="M139.1625,46.9815c-4.8995,0-8.8973-1.9882-9.6993-6.9825h-3.6845c1.3184,5.7951,7.1633,7.8556,13.3838,7.8556,13.8214,0,15.4753-15.7786,.9028-18.1934-12.3583-2.0506-9.8925-13.5584-2.8599-13.5584,2.9424,0,4.7784,2.0805,5.3061,3.5823h2.8512c-1.3283-2.2925-3.8853-4.4454-8.1574-4.4454-10.7969,0-13.5685,16.053,2.0181,18.6299,12.1364,2.0207,8.0065,13.1118-.061,13.1118Z" style="fill:#e6dfd5;"/><path d="M16.8077,56.6358c-21.4203,0-21.4203,32.5326,0,32.5326s21.4114-32.5326,0-32.5326Zm0,31.6694c-16.2053,0-16.1952-30.8462,0-30.8462s16.2063,30.8462,0,30.8462Z" style="fill:#e6dfd5;"/><path d="M56.3116,78.6659c0,10.7669-15.4356,12.6129-15.4356,2.4373v-23.9086h-4.2408c0,7.9255,.041,15.8285,.0809,23.744,0,11.4678,16.7229,10.4002,19.5956,1.0852v6.5858c1.3297-.7708,2.8201-1.0752,4.2919-1.1849v-30.2301h-4.2919v21.4714Z" style="fill:#e6dfd5;"/><path d="M70.6969,63.2616v-6.067c-1.3285,.7709-2.8203,1.0852-4.2909,1.1875v30.2275h4.2909v-21.6634c0-8.1999,6.7892-10.7045,9.6192-7.0324h3.7033c-3.2569-5.9872-11.4967-3.4102-13.3226,3.3478Z" style="fill:#e6dfd5;"/><path d="M108.5867,88.5896c-2.1105,.0699-4.3932-2.1005-4.3932-8.8909v-22.2397h5.8051v-.8632h-5.8051v-11.1934c-1.3295,.7609-2.8314,1.0752-4.3032,1.1775v5.346h-.0012v4.6675h-1.664v.8632h1.664v22.2422c0,6.7579,4.1298,9.5095,8.4841,9.5095,3.0149,0,6.8292-1.8984,7.7024-5.1564h-3.2668c-.4366,3.4102-2.7091,4.4854-4.2222,4.5377Z" style="fill:#e6dfd5;"/><path d="M122.0864,63.7805l.0214-47.942c-1.3285,.7708-2.8215,1.0876-4.2921,1.1875l-.0325,71.5836h4.3032v-21.4714c0-10.7668,15.4232-12.6129,15.4232-2.4347v23.9061h4.2422l-.0812-23.7439c0-11.4679-16.7239-10.4002-19.5841-1.0852Z" style="fill:#e6dfd5;"/><path d="M149.4464,51.0154c-1.3097,0-2.3637,1.0652-2.3637,2.3749,0,1.2972,1.0541,2.3625,2.3637,2.3625,1.3085,0,2.3748-1.0652,2.3748-2.3625,0-1.3097-1.0663-2.3749-2.3748-2.3749Z" style="fill:#e6dfd5;"/><path d="M147.306,88.6096h4.2919v-31.415c-1.3283,.7709-2.8213,1.0852-4.2919,1.1875v30.2275Z" style="fill:#e6dfd5;"/><path d="M160.7184,63.7779v-6.5834c-1.3297,.7709-2.8201,1.0852-4.302,1.185v30.23h4.302v-21.4738c0-10.7643,15.4243-12.6129,15.4243-2.4348v23.9086h4.2422c0-7.9254-.0311-15.831-.0709-23.7465,0-11.4654-16.7342-10.4001-19.5956-1.0852Z" style="fill:#e6dfd5;"/><path d="M199.9939,88.2753c-11.2121,0-9.4783-3.5199-3.2579-3.4301,0,0,1.1775,.0524,1.2885,.0524,16.5307,0,17.9115-23.714,4.1611-27.693,3.5222-.4166,6.0681-1.5617,7.7533-3.7045h-4.2122c-1.0651,2.1828-3.1956,3.0958-6.7991,3.0958l-.0087,.0699c-.2943-.02-.5899-.0299-.8943-.0299-16.4384,0-17.8891,23.4621-4.3732,27.6231-6.6656,1.0029-5.7627,8.2398,5.3886,8.2398,13.3238,0,11.5076,15.6863-.0711,15.6863-5.5606,0-9.2439-2.8514-10.147-7.8432h-4.1811c1.5017,5.7826,7.2769,8.7063,14.3281,8.7063,18.0937,0,17.0271-20.7728,1.0251-20.7728Zm-1.9694-30.9285c13.2938,0,13.0406,26.7999,0,26.7999-12.9572,0-13.0806-26.7999,0-26.7999Z" style="fill:#e6dfd5;"/><path d="M215.6396,81.7647c-1.86,0-3.368,1.5078-3.368,3.3679s1.5081,3.3679,3.368,3.3679,3.3679-1.5079,3.3679-3.3679-1.5079-3.3679-3.3679-3.3679Z" style="fill:#e6dfd5;"/></g></g></svg>