<?xml version="1.0" encoding="utf-8"?>
<!-- Generator: Adobe Illustrator 27.0.0, SVG Export Plug-In . SVG Version: 6.00 Build 0)  -->
<svg version="1.1" id="Components" xmlns="http://www.w3.org/2000/svg" xmlns:xlink="http://www.w3.org/1999/xlink" x="0px" y="0px"
	 viewBox="0 0 199.7 178.4" style="enable-background:new 0 0 199.7 178.4;" xml:space="preserve">
<style type="text/css">
	.st0{fill:#B4AEA3;}
	.st1{fill:#716A5D;}
</style>
<g id="_x34_2c1f39b-175f-4a06-b01b-c69e8ca63f99_x40_10">
	<g>
		<path class="st0" d="M19.8,109.7V132h4l-0.1-22.2c0-10.7-15.6-9.7-18.3-1V87.9c-1.2,0.7-2.6,1-4,1.1v43h4v-20
			C5.4,101.9,19.8,100.2,19.8,109.7z"/>
		<path class="st0" d="M43.2,132.5c5.5,0,9.5-2.3,11.9-5.6h-3.2c-1.9,2.9-4.8,4.8-8.7,4.8c-9.1,0-12.7-10.4-10.9-18.8h23.8
			c-1.1-5.4-5-10.8-12.9-10.8C23.2,102.2,23.2,132.5,43.2,132.5z M43.2,102.9c5.6,0,8.3,4.5,9.2,9.2H32.5
			C33.9,107,37.5,102.9,43.2,102.9z"/>
		<path class="st0" d="M71.4,102.1c-4,0-6.4,2-7.6,4.1h3c0.5-1.4,1.9-3.3,4.6-3.3c4.9,0,6.4,4.3,6.4,7.2v1c-3.2,0-6.8,0.3-10,1.3
			c-12.5,4.1-10,20,2.4,20.1c3.8,0,6.6-1.8,7.5-5.8v5.2c1.2-0.7,2.6-1,4-1.1v-20.8C81.7,104.1,76.7,102.1,71.4,102.1z M77.7,122.5
			c0,6.8-3.6,9.4-7.2,9.1c-8.7-0.8-8.7-12.9-2.1-17.3c2.4-1.6,5.7-2.5,9.3-2.6V122.5z"/>
		<path class="st0" d="M99.2,123.7c0,6.3,3.9,8.9,7.9,8.9c2.8,0,6.4-1.8,7.2-4.8h-3c-0.4,3.2-2.5,4.2-3.9,4.2c-2,0.1-4.1-2-4.1-8.3
			v-20.7h5.4v-0.8h-5.4V91.7c-1.2,0.7-2.6,1-4,1.1v5h0v4.4h-1.6v0.8h1.6V123.7z"/>
		<path class="st0" d="M135.7,109.7V132h4l-0.1-22.2c0-10.7-15.6-9.7-18.3-1v-48c-1.2,0.7-2.6,1-4,1.1V132h4v-20
			C121.3,101.9,135.7,100.2,135.7,109.7z"/>
		<path class="st0" d="M42.7,147.1c0.9,0.7,1.1,3,0.5,4.4l-8.6,20.2l-6.9-16.2l3.5-8.3h-3.1c0.9,0.7,1.1,3,0.5,4.4l-1.3,3l-3.1-7.4
			h-4l5.1,12.1l-5.3,12.5L9.6,147.1h-4c4.1,9.8,8.3,19.5,12.4,29.3h0.8l1.6-3.8l5.3-12.4l6.9,16.2h0.8l1.6-3.8
			c3.6-8.5,7.2-17,10.8-25.5H42.7z"/>
		<path class="st0" d="M73.2,157.4c-1.1-5.4-5-10.8-12.9-10.8c-20,0-20,30.3,0,30.3c5.5,0,9.5-2.3,11.9-5.6H69
			c-1.9,2.9-4.8,4.8-8.7,4.8c-9.1,0-12.7-10.4-10.9-18.8H73.2z M60.3,147.3c5.6,0,8.3,4.5,9.2,9.2H49.7
			C51.1,151.4,54.6,147.3,60.3,147.3z"/>
		<path class="st0" d="M77.6,176.4h4v-41.9c-1.2,0.7-2.6,1-4,1.1V176.4z"/>
		<path class="st0" d="M103,153.2v-6.1c-1.2,0.7-2.6,1-4,1.1v28.2h4v-20c0-10,14.4-11.8,14.4-2.3v22.3h4c0-7.4,0-14.8-0.1-22.1
			C121.3,143.5,105.7,144.5,103,153.2z"/>
		<path class="st0" d="M153.9,157.4c-1.1-5.4-5-10.8-12.9-10.8c-20,0-20,30.3,0,30.3c5.5,0,9.5-2.3,11.9-5.6h-3.2
			c-1.9,2.9-4.8,4.8-8.7,4.8c-9.1,0-12.7-10.4-10.9-18.8H153.9z M141,147.3c5.6,0,8.3,4.5,9.2,9.2h-19.9
			C131.7,151.4,135.3,147.3,141,147.3z"/>
		<path class="st0" d="M188.7,160c-11.5-1.9-9.2-12.6-2.7-12.6c2.7,0,4.5,1.9,5,3.3h2.7c-1.2-2.1-3.6-4.1-7.6-4.1
			c-10.1,0-12.7,15,1.9,17.4c11.3,1.9,7.5,12.2-0.1,12.2c-4.6,0-8.3-1.9-9.1-6.5c0.5-4.1-2.5-8.5-9.5-9.7
			c-11.5-1.9-9.2-12.6-2.7-12.6c2.7,0,4.5,1.9,5,3.3h2.7c-1.2-2.1-3.6-4.1-7.6-4.1c-10.1,0-12.7,15,1.9,17.4
			c11.3,1.9,7.5,12.2-0.1,12.2c-4.6,0-8.3-1.9-9.1-6.5H156c1.2,5.4,6.7,7.3,12.5,7.3c4.1,0,7.1-1.5,8.8-3.6
			c2.4,2.6,6.4,3.6,10.6,3.6C200.8,176.9,202.3,162.2,188.7,160z"/>
		<path class="st0" d="M74.8,73.7c-11.5-1.9-9.2-12.6-2.7-12.6c2.7,0,4.5,1.9,5,3.3h2.7c-1.2-2.1-3.6-4.1-7.6-4.1
			c-10.1,0-12.7,15,1.9,17.4c11.3,1.9,7.5,12.2-0.1,12.2c-4.6,0-8.3-1.9-9-6.5h-3.4c1.2,5.4,6.7,7.3,12.5,7.3
			C86.9,90.7,88.4,76,74.8,73.7z"/>
		<path class="st0" d="M92.3,78.9l6.8-8.5l6.6,16.9c0.6,1.5,1.4,2.8,3.6,2.8h3.3c-1.3-0.5-2.2-1.4-3.2-3.7l-5.7-14.5
			c-0.9-1.9-2.6-1.8-4.4-1.8l4.7-5.8c1.5-1.8,2.9-3.1,4-3.5h-4.1c0.8,0.6,0.5,1.9-0.4,3.1l-11.1,14v-24h-4v122.5h4V78.9z"/>
		<path class="st0" d="M132.1,70.1c0-10,14.4-11.8,14.4-2.3v22.3h4c0-7.4,0-14.8-0.1-22.1c0-10.7-15.6-9.7-18.3-1v-6.1
			c-1.2,0.7-2.6,1-4,1.1v28.2h4V70.1z"/>
	</g>
	<g>
		<path class="st1" d="M60.5,23h-3.4c-1.7-2.9-4.3-5-8.4-5c-8.1,0-12.3,7.5-12.5,15.2c-0.5,16.5,16.7,21.6,22.7,11l0.7,0.3
			c-1.5,2.6-4.8,6.2-10.9,6.2c-11.3,0-16.8-8.8-16.6-17.4c0.3-8.2,5.8-16.1,16.6-16.1C54.4,17.2,58.2,19.7,60.5,23z"/>
		<path class="st1" d="M69.7,50.2c-1.5,0-3,0-4.4,0h0c0-15.8,0-31.7,0-47.5c1.5-0.1,3.1-0.4,4.4-1.2C69.7,17.7,69.7,33.9,69.7,50.2z
			"/>
		<path class="st1" d="M81.4,17.3c0,1.2-1,2.2-2.2,2.2c-1.2,0-2.2-1-2.2-2.2c0-1.2,1-2.2,2.2-2.2C80.4,15.1,81.4,16.1,81.4,17.3z
			 M81.2,50.2c-1.3,0-2.6,0-3.9,0h-0.1c0-9.4,0-18.8,0-28.2c1.4-0.1,2.8-0.4,4-1.1C81.2,30.6,81.2,40.4,81.2,50.2z"/>
		<path class="st1" d="M92.3,27c2.7-8.7,18.3-9.7,18.3,1c0,7.4,0.1,14.8,0.1,22.1h-4c0-7.4,0-14.9,0-22.3c0-9.5-14.4-7.8-14.4,2.3
			c0,6.7,0,13.3,0,20h-4c0-9.4,0-18.8,0-28.2c1.4-0.1,2.8-0.4,4-1.1V27z"/>
		<path class="st1" d="M121.8,13.8c0,1.3-1.1,2.4-2.5,2.4c-1.4,0-2.4-1.1-2.4-2.4c0-1.4,1.1-2.5,2.4-2.5
			C120.7,11.4,121.8,12.5,121.8,13.8z M121.5,50.2c-1.5,0-2.9,0-4.4,0h-0.1c0-10.4,0-20.8,0-31.2c1.5-0.1,3.1-0.4,4.4-1.2
			C121.5,28.6,121.5,39.4,121.5,50.2z"/>
		<path class="st1" d="M154.9,23h-3.4c-1.7-2.9-4.3-5-8.4-5c-8.1,0-12.3,7.5-12.5,15.2c-0.5,16.5,16.7,21.6,22.7,11l0.7,0.3
			c-1.5,2.6-4.8,6.2-10.9,6.2c-11.3,0-16.8-8.8-16.6-17.4c0.3-8.2,5.8-16.1,16.6-16.1C148.8,17.2,152.6,19.7,154.9,23z"/>
	</g>
</g>
</svg>
